<svg xmlns="http://www.w3.org/2000/svg" xmlns:xlink="http://www.w3.org/1999/xlink" zoomAndPan="magnify" viewBox="0 0 112.5 112.499997" preserveAspectRatio="xMidYMid meet" version="1.0"><defs><clipPath id="83614ab794"><path d="M 1.375 1.375 L 111.125 1.375 L 111.125 111.125 L 1.375 111.125 Z M 1.375 1.375 " clip-rule="nonzero"/></clipPath><clipPath id="e094db51dd"><path d="M 56.25 1.375 C 25.945312 1.375 1.375 25.945312 1.375 56.25 C 1.375 86.554688 25.945312 111.125 56.25 111.125 C 86.554688 111.125 111.125 86.554688 111.125 56.25 C 111.125 25.945312 86.554688 1.375 56.25 1.375 Z M 56.25 1.375 " clip-rule="nonzero"/></clipPath><clipPath id="06b37ebf6b"><path d="M 26.894531 33.609375 L 85.394531 33.609375 L 85.394531 78.609375 L 26.894531 78.609375 Z M 26.894531 33.609375 " clip-rule="nonzero"/></clipPath></defs><g clip-path="url(#83614ab794)"><g clip-path="url(#e094db51dd)"><path fill="#facd68" d="M 1.375 1.375 L 111.125 1.375 L 111.125 111.125 L 1.375 111.125 Z M 1.375 1.375 " fill-opacity="1" fill-rule="nonzero"/></g></g><g clip-path="url(#06b37ebf6b)"><path fill="#ffffff" d="M 45.507812 68.9375 L 31.648438 55.113281 L 26.945312 59.804688 L 45.507812 78.320312 L 85.394531 38.539062 L 80.691406 33.847656 Z M 45.507812 68.9375 " fill-opacity="1" fill-rule="nonzero"/></g></svg>